<svg width="13" height="14" viewBox="0 0 13 14" fill="none" xmlns="http://www.w3.org/2000/svg">
<path d="M6.5 13.4704C10.0605 13.4704 12.9695 10.5614 12.9695 7.00087C12.9695 3.44033 10.0605 0.531389 6.5 0.531389C2.93946 0.508117 0.0305176 3.41706 0.0305176 6.9776C0.0305176 10.5614 2.93946 13.4704 6.5 13.4704ZM3.70742 6.55871H6.08111V4.18502C6.08111 3.9523 6.26729 3.74286 6.52327 3.74286C6.77926 3.74286 6.96543 3.92903 6.96543 4.18502V6.55871H9.33913C9.57184 6.55871 9.78129 6.74488 9.78129 7.00087C9.78129 7.25686 9.59511 7.44303 9.33913 7.44303H6.94216V9.81673C6.94216 10.0494 6.75599 10.2589 6.5 10.2589C6.24401 10.2589 6.05784 10.0727 6.05784 9.81673V7.41976H3.70742C3.4747 7.41976 3.26526 7.23359 3.26526 6.9776C3.26526 6.72161 3.45143 6.55871 3.70742 6.55871Z" fill="white"/>
</svg>
