<svg width="17" height="18" viewBox="0 0 17 18" fill="none" xmlns="http://www.w3.org/2000/svg">
<path d="M8.5 17.5051C13.1781 17.5051 17 13.6831 17 9.00507C17 4.32701 13.1781 0.505065 8.5 0.505065C3.82194 0.474489 0 4.29643 0 8.97449C0 13.6831 3.82194 17.5051 8.5 17.5051ZM4.83094 8.42413H7.94964V5.30543C7.94964 4.99967 8.19425 4.72449 8.53058 4.72449C8.86691 4.72449 9.11151 4.96909 9.11151 5.30543V8.42413H12.2302C12.536 8.42413 12.8112 8.66874 12.8112 9.00507C12.8112 9.3414 12.5665 9.586 12.2302 9.586H9.08094V12.7047C9.08094 13.0105 8.83633 13.2856 8.5 13.2856C8.16367 13.2856 7.91907 13.041 7.91907 12.7047V9.55543H4.83094C4.52518 9.55543 4.25 9.31082 4.25 8.97449C4.25 8.63816 4.4946 8.42413 4.83094 8.42413Z" fill="#299FD6"/>
</svg>
