<svg width="19" height="19" viewBox="0 0 19 19" fill="none" xmlns="http://www.w3.org/2000/svg">
<path fill-rule="evenodd" clip-rule="evenodd" d="M13.5714 1.35714H10.1786V0.678571C10.1786 0.304 9.87457 0 9.5 0C9.12543 0 8.82143 0.304 8.82143 0.678571V1.35714H5.42857V0.678571C5.42857 0.304 5.12457 0 4.75 0C4.37543 0 4.07143 0.304 4.07143 0.678571V1.35714H2.03571C1.49557 1.35714 0.97782 1.57157 0.596463 1.95361C0.214427 2.33496 0 2.85271 0 3.39286V16.9643C0 17.5044 0.214427 18.0222 0.596463 18.4035C0.97782 18.7856 1.49557 19 2.03571 19H16.9643C17.5044 19 18.0222 18.7856 18.4035 18.4035C18.7856 18.0222 19 17.5044 19 16.9643V3.39286C19 2.85271 18.7856 2.33496 18.4035 1.95361C18.0222 1.57157 17.5044 1.35714 16.9643 1.35714H14.9286V0.678571C14.9286 0.304 14.6246 0 14.25 0C13.8754 0 13.5714 0.304 13.5714 0.678571V1.35714ZM17.6429 7.46429V16.9643C17.6429 17.1441 17.5716 17.3171 17.444 17.444C17.3171 17.5716 17.1441 17.6429 16.9643 17.6429H2.03571C1.85589 17.6429 1.68286 17.5716 1.55596 17.444C1.42839 17.3171 1.35714 17.1441 1.35714 16.9643V7.46429H17.6429ZM14.9286 2.71429V3.52179C14.9286 3.89636 14.6246 4.20036 14.25 4.20036C13.8754 4.20036 13.5714 3.89636 13.5714 3.52179V2.71429H10.1786V3.52179C10.1786 3.89636 9.87457 4.20036 9.5 4.20036C9.12543 4.20036 8.82143 3.89636 8.82143 3.52179V2.71429H5.42857V3.52179C5.42857 3.89636 5.12457 4.20036 4.75 4.20036C4.37543 4.20036 4.07143 3.89636 4.07143 3.52179V2.71429H2.03571C1.85589 2.71429 1.68286 2.78554 1.55596 2.91311C1.42839 3.04 1.35714 3.21304 1.35714 3.39286V6.10714H17.6429V3.39286C17.6429 3.21304 17.5716 3.04 17.444 2.91311C17.3171 2.78554 17.1441 2.71429 16.9643 2.71429H14.9286Z" fill="#5A6C83"/>
</svg>
