<svg width="17" height="21" viewBox="0 0 17 21" fill="none" xmlns="http://www.w3.org/2000/svg">
<path fill-rule="evenodd" clip-rule="evenodd" d="M8.49999 0.609985C8.68299 0.609985 8.85849 0.682682 8.98789 0.812082C9.11729 0.941482 9.18999 1.11699 9.18999 1.29999V11.9015L12.6124 8.47905C12.6756 8.41126 12.7517 8.35689 12.8364 8.31917C12.921 8.28146 13.0124 8.26118 13.105 8.25955C13.1977 8.25791 13.2897 8.27496 13.3756 8.30966C13.4615 8.34436 13.5396 8.39602 13.6051 8.46154C13.6706 8.52706 13.7223 8.60511 13.757 8.69102C13.7917 8.77694 13.8087 8.86897 13.8071 8.96161C13.8055 9.05426 13.7852 9.14563 13.7475 9.23027C13.7098 9.31491 13.6554 9.39108 13.5876 9.45425L8.98759 14.0543C8.85821 14.1835 8.68284 14.256 8.49999 14.256C8.31714 14.256 8.14176 14.1835 8.01239 14.0543L3.41239 9.45425C3.3446 9.39108 3.29022 9.31491 3.25251 9.23027C3.2148 9.14563 3.19452 9.05426 3.19288 8.96161C3.19125 8.86897 3.20829 8.77694 3.24299 8.69102C3.2777 8.60511 3.32935 8.52706 3.39487 8.46154C3.46039 8.39602 3.53844 8.34436 3.62436 8.30966C3.71027 8.27496 3.8023 8.25791 3.89495 8.25955C3.98759 8.26118 4.07896 8.28146 4.1636 8.31917C4.24824 8.35689 4.32442 8.41126 4.38759 8.47905L7.80999 11.9015V1.29999C7.80999 1.11699 7.88268 0.941482 8.01208 0.812082C8.14148 0.682682 8.31699 0.609985 8.49999 0.609985ZM0.833321 14.3333C1.03665 14.3333 1.23166 14.4141 1.37544 14.5579C1.51921 14.7016 1.59999 14.8967 1.59999 15.1V17.4C1.59999 18.2495 2.28385 18.9333 3.12719 18.9333H13.8682C14.0695 18.9333 14.2688 18.8936 14.4547 18.8166C14.6407 18.7395 14.8096 18.6265 14.9519 18.4841C15.0941 18.3417 15.2069 18.1727 15.2838 17.9866C15.3607 17.8006 15.4002 17.6013 15.4 17.4V15.1C15.4 14.8967 15.4808 14.7016 15.6245 14.5579C15.7683 14.4141 15.9633 14.3333 16.1667 14.3333C16.37 14.3333 16.565 14.4141 16.7088 14.5579C16.8525 14.7016 16.9333 14.8967 16.9333 15.1V17.4C16.9333 18.213 16.6104 18.9928 16.0357 19.5679C15.4609 20.143 14.6813 20.4662 13.8682 20.4667H3.12719C2.72481 20.4664 2.32642 20.3869 1.95479 20.2327C1.58316 20.0784 1.24558 19.8524 0.961343 19.5676C0.677106 19.2828 0.451788 18.9448 0.298272 18.5728C0.144755 18.2009 0.0660493 17.8024 0.0666538 17.4V15.1C0.0666538 14.8967 0.147428 14.7016 0.291205 14.5579C0.434983 14.4141 0.629988 14.3333 0.833321 14.3333Z" fill="#5A6C83"/>
</svg>
