<svg width="16" height="14" viewBox="0 0 16 14" fill="none" xmlns="http://www.w3.org/2000/svg">
<path d="M2.32711 13.9272C1.52452 13.9272 0.784344 13.4903 0.365211 12.8036C-0.107428 12.0278 -0.107428 11.1003 0.284952 10.2888L5.48399 1.78131C6.07256 0.916286 6.83948 0.220703 7.9542 0.220703C9.06891 0.220703 9.83584 0.916286 10.4244 1.78131L15.5967 10.2442C16.0247 11.0379 16.0069 12.0367 15.5343 12.8036C15.1151 13.4903 14.3839 13.9272 13.5724 13.9272H2.32711ZM7.9542 9.48622C8.42684 9.48622 8.80138 9.86968 8.80138 10.3423C8.80138 10.815 8.42684 11.1895 7.9542 11.1895C7.48156 11.1895 7.09809 10.815 7.09809 10.3423C7.09809 9.86968 7.48156 9.48622 7.9542 9.48622ZM7.9542 8.63904C7.64208 8.63904 7.41913 8.38042 7.38346 8.0683L7.09809 5.50891C7.05351 5.07195 7.51723 4.66173 7.9542 4.66173C8.39116 4.66173 8.85489 5.07195 8.80138 5.50891L8.51601 8.0683C8.48926 8.3715 8.27523 8.63904 7.9542 8.63904ZM2.32711 12.7947H13.5724C13.9915 12.7947 14.3482 12.5628 14.5711 12.2061C14.8298 11.7781 14.8208 11.2608 14.6157 10.815L9.47913 2.41446C9.1135 1.8794 8.6587 1.35325 7.9542 1.35325C7.2497 1.35325 6.78597 1.8794 6.42035 2.41446L1.29265 10.815C1.07863 11.2698 1.06971 11.7781 1.33724 12.2061C1.55127 12.5628 1.90798 12.7947 2.32711 12.7947Z" fill="white"/>
</svg>
