<svg width="17" height="13" viewBox="0 0 17 13" fill="none" xmlns="http://www.w3.org/2000/svg">
<path d="M16.6745 5.08072C15.4942 3.55271 12.3352 0 8.50004 0C4.66489 0 1.50507 3.55357 0.325555 5.08072C-0.108379 5.64033 -0.108379 6.42275 0.324717 6.98152C1.50507 8.50953 4.66492 12.0631 8.50006 12.0631C12.3352 12.0631 15.495 8.50953 16.6746 6.98238C17.1085 6.42277 17.1085 5.64033 16.6745 5.08072ZM15.614 6.16223C14.788 7.23201 11.8307 10.7229 8.49912 10.7229C5.16752 10.7229 2.21122 7.23216 1.38341 6.16223C1.32226 6.08265 1.32226 5.98044 1.38425 5.90085C2.21025 4.83107 5.1675 1.34019 8.4991 1.34019C11.8307 1.34019 14.787 4.83092 15.614 5.90085L15.6148 5.90169C15.6759 5.98127 15.6759 6.08347 15.614 6.16307L15.614 6.16223Z" fill="#5A6C83"/>
<path d="M8.50032 2.68066C6.65313 2.68066 5.14941 4.18354 5.14941 6.03157C5.14941 7.87959 6.65313 9.38247 8.50032 9.38247C10.3475 9.38247 11.8512 7.87959 11.8512 6.03157C11.8512 4.18354 10.3475 2.68066 8.50032 2.68066ZM8.50032 8.04211C7.392 8.04211 6.48978 7.13988 6.48978 6.03157C6.48978 4.92325 7.392 4.02103 8.50032 4.02103C9.60863 4.02103 10.5109 4.92325 10.5109 6.03157C10.5109 7.13988 9.60863 8.04211 8.50032 8.04211Z" fill="#5A6C83"/>
</svg>
