<svg width="16" height="17" viewBox="0 0 16 17" fill="none" xmlns="http://www.w3.org/2000/svg">
<path d="M6.85704 0.720703C4.97024 0.720703 3.42847 2.26249 3.42847 4.14927C3.42847 6.03605 4.97024 7.57784 6.85704 7.57784C8.74383 7.57784 10.2856 6.03605 10.2856 4.14927C10.2856 2.26249 8.74383 0.720703 6.85704 0.720703ZM6.85704 1.86356C8.12618 1.86356 9.14275 2.88014 9.14275 4.14927C9.14275 5.4184 8.12618 6.43498 6.85704 6.43498C5.58789 6.43498 4.57132 5.4184 4.57132 4.14927C4.57132 2.88014 5.58789 1.86356 6.85704 1.86356Z" fill="white"/>
<path d="M5.14285 8.72076C2.3036 8.72076 0 11.0244 0 13.8636V15.0065C1.51373e-05 15.158 0.0602239 15.3034 0.167384 15.4105C0.274544 15.5177 0.419881 15.5779 0.571428 15.5779H6.77011C6.84583 15.579 6.92101 15.565 6.99128 15.5367C7.06154 15.5085 7.1255 15.4666 7.17942 15.4134C7.23335 15.3602 7.27617 15.2969 7.30539 15.227C7.33462 15.1572 7.34967 15.0822 7.34967 15.0065C7.34967 14.9307 7.33462 14.8558 7.30539 14.7859C7.27617 14.716 7.23335 14.6527 7.17942 14.5995C7.1255 14.5464 7.06154 14.5044 6.99128 14.4762C6.92101 14.448 6.84583 14.434 6.77011 14.435H1.14286V13.8636C1.14286 11.6377 2.91697 9.86362 5.14285 9.86362H7.43748C7.5132 9.86469 7.58838 9.8507 7.65865 9.82246C7.72891 9.79422 7.79287 9.7523 7.84679 9.69914C7.90072 9.64597 7.94354 9.58261 7.97276 9.51275C8.00199 9.44289 8.01704 9.36792 8.01704 9.29219C8.01704 9.21646 8.00199 9.14149 7.97276 9.07163C7.94354 9.00177 7.90072 8.93841 7.84679 8.88524C7.79287 8.83207 7.72891 8.79015 7.65865 8.76192C7.58838 8.73368 7.5132 8.71969 7.43748 8.72076H5.14285Z" fill="white"/>
<path d="M11.9925 8.72072C11.6738 8.72586 11.4223 8.98481 11.4266 9.29993V9.92156C11.0629 9.9965 10.7241 10.1427 10.4244 10.3423L9.98578 9.9037C9.8511 9.76518 9.69824 9.71299 9.5539 9.72068C9.12104 9.74377 8.76213 10.3077 9.17773 10.7117L9.61858 11.1525C9.42001 11.4526 9.27396 11.791 9.20007 12.1547H8.57956C7.80681 12.1438 7.80681 13.3085 8.57956 13.2975H9.2023C9.27704 13.6579 9.42247 13.9933 9.61973 14.2908L9.1755 14.735C8.62139 15.2736 9.44487 16.0971 9.98356 15.543L10.4266 15.0999C10.7258 15.2988 11.0637 15.4448 11.4266 15.5196V16.1412C11.4158 16.9139 12.5804 16.9139 12.5694 16.1412V15.5207C12.932 15.4466 13.2692 15.3002 13.5683 15.1022L14.0148 15.5486C14.2394 15.7796 14.6111 15.7796 14.8328 15.5509C15.0545 15.3219 15.0489 14.9604 14.8225 14.7406L14.3784 14.2964C14.5773 13.9977 14.7229 13.6599 14.798 13.2976H15.4207C15.7428 13.3022 16.0049 13.0392 16 12.7206C15.9942 12.402 15.7358 12.1505 15.4207 12.1548H14.8002C14.7259 11.7891 14.5798 11.4483 14.3795 11.147L14.8202 10.7062C15.0513 10.4816 15.0513 10.1099 14.8202 9.88814C14.7064 9.77786 14.5598 9.72378 14.4141 9.7252C14.2684 9.72806 14.1238 9.78581 14.0145 9.89818L13.5725 10.3401C13.2729 10.1414 12.9348 9.99476 12.5714 9.9205V9.29999C12.5771 8.97787 12.313 8.7158 11.9944 8.72077L11.9925 8.72072ZM12.0005 11.0063C12.954 11.0063 13.7147 11.7671 13.7147 12.7206C13.7147 13.6741 12.954 14.4348 12.0005 14.4348C11.0469 14.4348 10.2862 13.6741 10.2862 12.7206C10.2862 11.7671 11.0469 11.0063 12.0005 11.0063Z" fill="white"/>
</svg>
