<svg width="12" height="13" viewBox="0 0 12 13" fill="none" xmlns="http://www.w3.org/2000/svg">
<path d="M10.3636 2.40252H9.27273V1.85707C9.27273 1.42308 9.10033 1.00686 8.79345 0.699983C8.48657 0.393105 8.07035 0.220703 7.63636 0.220703H4.36364C3.92965 0.220703 3.51343 0.393105 3.20655 0.699983C2.89967 1.00686 2.72727 1.42308 2.72727 1.85707V2.40252H1.63636C1.20237 2.40252 0.786158 2.57492 0.47928 2.8818C0.172402 3.18868 0 3.60489 0 4.03889V10.5843C0 11.0183 0.172402 11.4345 0.47928 11.7414C0.786158 12.0483 1.20237 12.2207 1.63636 12.2207H10.3636C10.7976 12.2207 11.2138 12.0483 11.5207 11.7414C11.8276 11.4345 12 11.0183 12 10.5843V4.03889C12 3.60489 11.8276 3.18868 11.5207 2.8818C11.2138 2.57492 10.7976 2.40252 10.3636 2.40252ZM3.81818 1.85707C3.81818 1.7124 3.87565 1.57366 3.97794 1.47137C4.08023 1.36908 4.21897 1.31161 4.36364 1.31161H7.63636C7.78103 1.31161 7.91977 1.36908 8.02206 1.47137C8.12435 1.57366 8.18182 1.7124 8.18182 1.85707V2.40252H3.81818V1.85707ZM1.63636 3.49343H10.3636C10.5083 3.49343 10.647 3.5509 10.7493 3.65319C10.8516 3.75548 10.9091 3.89422 10.9091 4.03889V5.67525H9.27273V4.58434H8.18182V5.67525H3.81818V4.58434H2.72727V5.67525H1.09091V4.03889C1.09091 3.89422 1.14838 3.75548 1.25067 3.65319C1.35296 3.5509 1.4917 3.49343 1.63636 3.49343ZM10.3636 11.1298H1.63636C1.4917 11.1298 1.35296 11.0723 1.25067 10.97C1.14838 10.8677 1.09091 10.729 1.09091 10.5843V6.76616H2.72727V7.85707H3.81818V6.76616H8.18182V7.85707H9.27273V6.76616H10.9091V10.5843C10.9091 10.729 10.8516 10.8677 10.7493 10.97C10.647 11.0723 10.5083 11.1298 10.3636 11.1298Z" fill="white"/>
</svg>
