<svg width="19" height="20" viewBox="0 0 19 20" fill="none" xmlns="http://www.w3.org/2000/svg">
<path d="M2.77432 4.29327H10.7052C10.991 4.29327 11.2219 4.06238 11.2219 3.77652C11.2219 3.49065 10.991 3.25977 10.7052 3.25977H2.77432C2.48846 3.25977 2.25757 3.49065 2.25757 3.77652C2.25757 4.06238 2.48846 4.29327 2.77432 4.29327Z" fill="white"/>
<path d="M2.77432 7.25518H9.01565C9.30151 7.25518 9.5324 7.02429 9.5324 6.73843C9.5324 6.45257 9.30151 6.22168 9.01565 6.22168H2.77432C2.48846 6.22168 2.25757 6.45257 2.25757 6.73843C2.25757 7.02429 2.48846 7.25518 2.77432 7.25518Z" fill="white"/>
<path d="M6.29996 9.18164H2.77432C2.48846 9.18164 2.25757 9.41253 2.25757 9.69839C2.25757 9.98425 2.48846 10.2151 2.77432 10.2151H6.29996C6.58582 10.2151 6.81671 9.98425 6.81671 9.69839C6.81671 9.41253 6.58582 9.18164 6.29996 9.18164Z" fill="white"/>
<path d="M18.3209 16.3442L15.8288 13.852C16.0854 13.2913 16.2283 12.6719 16.2283 12.0159C16.2283 10.0955 14.9969 8.46097 13.2817 7.8526V1.95577C13.2817 1.10185 12.5854 0.40918 11.7315 0.40918H1.74459C0.890668 0.40918 0.194336 1.10185 0.194336 1.95577V12.2908C0.194336 12.7049 0.355592 13.0934 0.648784 13.3866L3.13359 15.8751C3.42678 16.1683 3.81526 16.3295 4.22939 16.3295H10.8116C11.1304 16.4028 11.4639 16.4468 11.8048 16.4468C12.4608 16.4468 13.0765 16.3002 13.6372 16.0437L16.133 18.5395C16.745 19.1515 17.621 19.2395 18.3209 18.5395C18.9916 17.8651 18.9586 16.9819 18.3209 16.3442ZM3.28385 14.5667L1.95715 13.2363H3.28751V14.5667H3.28385ZM4.31735 15.296V12.7196C4.31735 12.4337 4.08646 12.2028 3.8006 12.2028H1.22784V1.95577C1.22784 1.66991 1.45873 1.43902 1.74459 1.43902H11.7388C12.0246 1.43902 12.2555 1.66991 12.2555 1.95577V7.61438C12.1089 7.59972 11.9587 7.59239 11.8084 7.59239C9.36759 7.59239 7.38121 9.57877 7.38121 12.0159C7.38121 13.317 7.94927 14.4824 8.84351 15.2924H4.31735V15.296ZM11.8048 15.4096C9.93198 15.4096 8.41105 13.8887 8.41105 12.0159C8.41105 10.1432 9.93198 8.62223 11.8048 8.62223C13.6775 8.62223 15.1985 10.1432 15.1985 12.0159C15.1985 13.8887 13.6775 15.4096 11.8048 15.4096ZM17.5916 17.8028C17.3974 17.9971 17.0566 17.9971 16.8623 17.8028L14.5461 15.4866C14.8173 15.274 15.0628 15.0285 15.2754 14.7573L17.5916 17.0735C17.8042 17.2861 17.7969 17.6012 17.5916 17.8028Z" fill="white"/>
</svg>
