<svg width="18" height="18" viewBox="0 0 18 18" fill="none" xmlns="http://www.w3.org/2000/svg">
<path d="M8.50684 0.720703H9.88184V8.9707H8.50684V0.720703ZM6.44434 1.19336V2.69727C5.21257 3.21289 4.20996 4.04362 3.43652 5.18945C2.69173 6.33529 2.31934 7.5957 2.31934 8.9707C2.31934 10.8613 2.99251 12.4798 4.33887 13.8262C5.68522 15.1725 7.30371 15.8457 9.19434 15.8457C11.085 15.8457 12.7035 15.1725 14.0498 13.8262C15.3962 12.4798 16.0693 10.8613 16.0693 8.9707C16.0693 7.5957 15.6826 6.33529 14.9092 5.18945C14.1644 4.04362 13.1761 3.21289 11.9443 2.69727V1.19336C13.5771 1.76628 14.8949 2.76888 15.8975 4.20117C16.9287 5.60482 17.4443 7.19466 17.4443 8.9707C17.4443 11.2337 16.6279 13.1816 14.9951 14.8145C13.391 16.4186 11.4574 17.2207 9.19434 17.2207C6.93132 17.2207 4.9834 16.4186 3.35059 14.8145C1.74642 13.1816 0.944336 11.2337 0.944336 8.9707C0.944336 7.19466 1.44564 5.60482 2.44824 4.20117C3.47949 2.76888 4.81152 1.76628 6.44434 1.19336Z" fill="white"/>
</svg>
