<svg width="20" height="19" viewBox="0 0 20 19" fill="none" xmlns="http://www.w3.org/2000/svg">
<path d="M10 18.6049C15.0258 18.6049 19.1 14.5307 19.1 9.50488C19.1 4.47909 15.0258 0.404883 10 0.404883C4.97421 0.404883 0.9 4.47909 0.9 9.50488C0.9 14.5307 4.97421 18.6049 10 18.6049Z" stroke="#5C5C5C" stroke-width="0.2"/>
<path d="M10 10.2978L7.73162 7.65133C7.56425 7.45607 7.29289 7.45607 7.12553 7.65133C6.95816 7.84659 6.95816 8.16317 7.12553 8.35844L9.69695 11.3584C9.86432 11.5537 10.1357 11.5537 10.303 11.3584L12.8745 8.35844C13.0418 8.16317 13.0418 7.84659 12.8745 7.65133C12.7071 7.45607 12.4358 7.45607 12.2684 7.65133L10 10.2978Z" fill="#565656"/>
<mask id="mask0_2041_20044" style="mask-type:luminance" maskUnits="userSpaceOnUse" x="7" y="7" width="6" height="5">
<path d="M10 10.2978L7.73162 7.65133C7.56425 7.45607 7.29289 7.45607 7.12553 7.65133C6.95816 7.84659 6.95816 8.16317 7.12553 8.35844L9.69695 11.3584C9.86432 11.5537 10.1357 11.5537 10.303 11.3584L12.8745 8.35844C13.0418 8.16317 13.0418 7.84659 12.8745 7.65133C12.7071 7.45607 12.4358 7.45607 12.2684 7.65133L10 10.2978Z" fill="white"/>
</mask>
<g mask="url(#mask0_2041_20044)">
</g>
</svg>
