<svg width="24" height="24" viewBox="0 0 24 24" fill="none" xmlns="http://www.w3.org/2000/svg">
<path d="M8.88895 24C8.75795 24 8.62995 23.948 8.53495 23.854C8.41195 23.731 8.36195 23.554 8.40195 23.386L9.49195 18.761C9.51295 18.671 9.55895 18.588 9.62495 18.522L19.171 8.976C19.952 8.195 21.22 8.196 22 8.976L23.414 10.39C23.792 10.767 24 11.269 24 11.803C24 12.338 23.792 12.84 23.414 13.217L13.868 22.763C13.803 22.829 13.72 22.875 13.629 22.896L9.00395 23.986C8.96595 23.996 8.92695 24 8.88895 24ZM10.433 19.127L9.56095 22.827L13.262 21.955L22.707 12.51C22.896 12.321 23 12.07 23 11.803C23 11.536 22.896 11.285 22.707 11.096L21.293 9.682C20.903 9.292 20.268 9.291 19.878 9.682L10.433 19.127Z" fill="#5A6C83"/>
<path d="M20.5861 15.839C20.4581 15.839 20.3301 15.79 20.2321 15.693L16.6961 12.157C16.5011 11.962 16.5011 11.645 16.6961 11.45C16.8911 11.255 17.2081 11.255 17.4031 11.45L20.9391 14.986C21.1341 15.181 21.1341 15.498 20.9391 15.693C20.8421 15.79 20.7141 15.839 20.5861 15.839Z" fill="#5A6C83"/>
<path d="M6.84 21H2C0.897 21 0 20.103 0 19V2C0 0.897 0.897 0 2 0H17C18.103 0 19 0.897 19 2V6.88C19 7.156 18.776 7.38 18.5 7.38C18.224 7.38 18 7.156 18 6.88V2C18 1.449 17.551 1 17 1H2C1.449 1 1 1.449 1 2V19C1 19.551 1.449 20 2 20H6.84C7.116 20 7.34 20.224 7.34 20.5C7.34 20.776 7.116 21 6.84 21Z" fill="#5A6C83"/>
<path d="M18.5 6H0.5C0.224 6 0 5.776 0 5.5C0 5.224 0.224 5 0.5 5H18.5C18.776 5 19 5.224 19 5.5C19 5.776 18.776 6 18.5 6Z" fill="#5A6C83"/>
<path d="M14.82 11H0.5C0.224 11 0 10.776 0 10.5C0 10.224 0.224 10 0.5 10H14.82C15.096 10 15.32 10.224 15.32 10.5C15.32 10.776 15.096 11 14.82 11Z" fill="#5A6C83"/>
<path d="M9.5 16H0.5C0.224 16 0 15.776 0 15.5C0 15.224 0.224 15 0.5 15H9.5C9.776 15 10 15.224 10 15.5C10 15.776 9.776 16 9.5 16Z" fill="#5A6C83"/>
<path d="M9.5 16C9.224 16 9 15.776 9 15.5V5.5C9 5.224 9.224 5 9.5 5C9.776 5 10 5.224 10 5.5V15.5C10 15.776 9.776 16 9.5 16Z" fill="#5A6C83"/>
</svg>
