<svg width="14" height="16" viewBox="0 0 14 16" fill="none" xmlns="http://www.w3.org/2000/svg">
<path fill-rule="evenodd" clip-rule="evenodd" d="M9.64568 5.99902V9.30818H10.6819V5.99902C10.6819 5.90419 10.7571 5.82719 10.8501 5.82719H11.2052L10.1638 4.37469L9.12251 5.82719H9.47771C9.5705 5.82719 9.64568 5.90402 9.64568 5.99902ZM12.4404 4.16869V9.30818H13.4767V4.16869C13.4767 4.07386 13.5518 3.99686 13.6448 3.99686H14L12.9586 2.54436L11.9173 3.99686H12.2725C12.3653 3.99686 12.4404 4.07369 12.4404 4.16869ZM6.85109 7.56568V9.30818H7.88732V7.56568C7.88732 7.47085 7.9625 7.39385 8.05546 7.39385H8.41066L7.36937 5.94135L6.32809 7.39385H6.68328C6.77607 7.39385 6.85142 7.47068 6.85142 7.56568H6.85109ZM8.43153 4.70852C8.28541 4.65302 8.13423 4.60836 7.97881 4.57536C7.76925 4.53086 7.55349 4.50736 7.33382 4.50736C6.46296 4.50736 5.67461 4.86802 5.10382 5.45135C4.53319 6.03452 4.18012 6.84035 4.18012 7.73018C4.18012 8.62001 4.53303 9.42584 5.10382 10.009C5.67445 10.5922 6.46296 10.953 7.33382 10.953C7.59019 10.953 7.84084 10.9212 8.08221 10.861C8.31721 10.8025 8.5408 10.7178 8.74971 10.6103H11.2816L11.7687 11.1082L10.647 12.2545L10.1123 11.708C10.0521 11.6465 9.95766 11.6413 9.89178 11.6927C9.64764 11.8577 9.38703 11.9998 9.11338 12.116C8.84038 12.2318 8.55564 12.3217 8.26241 12.3825C8.18283 12.3988 8.12771 12.4703 8.12787 12.5503H8.12722V13.3213H6.54091V12.5503C6.54091 12.4618 6.47551 12.389 6.39136 12.3795C6.10303 12.3188 5.82334 12.23 5.55475 12.116C5.27751 11.9983 5.01396 11.8542 4.76706 11.6865C4.69938 11.6407 4.61099 11.6517 4.55586 11.7082L4.02095 12.2543L2.89927 11.108L3.43565 10.5598C3.49566 10.4985 3.50072 10.402 3.45081 10.3348C3.28985 10.0848 3.15156 9.81901 3.03903 9.54034C2.92666 9.26218 2.83941 8.97134 2.78038 8.67084C2.7644 8.58951 2.69443 8.53318 2.61615 8.53334V8.53268H1.85537V6.91152H2.61909C2.70503 6.91152 2.77598 6.84552 2.78592 6.76035C2.84561 6.46618 2.93254 6.18119 3.04376 5.90802C3.15857 5.62602 3.29931 5.35802 3.46255 5.10669C3.5074 5.03752 3.49664 4.94719 3.44135 4.89086L2.89894 4.33602L4.02062 3.18969L4.56483 3.74586C4.62485 3.80719 4.71927 3.81253 4.78499 3.76136C5.02864 3.59753 5.28762 3.45669 5.55882 3.34203C5.82987 3.22736 6.11298 3.13836 6.40522 3.07769C6.48481 3.06136 6.53993 2.98986 6.53977 2.90986H6.54042V2.12286H8.12673V2.90986C8.12673 2.99836 8.19212 3.07119 8.27628 3.08069C8.41783 3.11053 8.55759 3.14703 8.69491 3.19003C8.78444 3.21803 8.87397 3.24919 8.96318 3.28353L8.4312 4.70836L8.43153 4.70852ZM13.4109 11.2832C13.3791 11.3402 13.3814 11.4095 13.417 11.4642C13.4874 11.5702 13.6393 11.5648 13.7025 11.4543C13.7596 11.3523 13.8141 11.2498 13.8669 11.1455C13.9103 11.0582 13.8751 10.953 13.7883 10.9113C13.7061 10.8725 13.6094 10.9063 13.5678 10.9885C13.5176 11.088 13.4654 11.186 13.4109 11.2832ZM12.6539 12.3778C12.6055 12.4357 12.6003 12.519 12.6405 12.5828C12.702 12.6792 12.8364 12.6885 12.9095 12.601C12.9842 12.512 13.0566 12.4213 13.1272 12.3288C13.1799 12.2597 13.173 12.161 13.1114 12.1C13.0394 12.0288 12.923 12.0373 12.8617 12.118C12.7943 12.2062 12.7252 12.2928 12.6539 12.3778ZM11.7111 13.3102C11.6035 13.3995 11.6415 13.5758 11.7762 13.6105C11.8281 13.6233 11.8809 13.6115 11.9225 13.5773C12.0119 13.5038 12.0998 13.4287 12.1857 13.3512C12.2341 13.307 12.2535 13.2395 12.2358 13.1757C12.201 13.0542 12.0556 13.0102 11.9624 13.0942C11.8804 13.1683 11.7964 13.24 11.7111 13.3102ZM10.6162 14.0468C10.4996 14.1108 10.497 14.28 10.612 14.3477C10.6628 14.3768 10.7225 14.378 10.7742 14.35C10.8755 14.2952 10.9755 14.2373 11.0741 14.1777C11.1855 14.1097 11.1831 13.9448 11.0701 13.8798C11.017 13.8503 10.9546 13.8507 10.9024 13.8823C10.8083 13.9392 10.7129 13.9947 10.6162 14.0468ZM9.40579 14.5615C9.27206 14.6043 9.24483 14.7843 9.3598 14.8668C9.40334 14.8968 9.45471 14.9053 9.50511 14.8897C9.61437 14.856 9.72396 14.8173 9.83144 14.7778C9.9575 14.7308 9.98147 14.56 9.874 14.4782C9.82801 14.4438 9.77061 14.4353 9.71695 14.4548C9.61454 14.4925 9.51 14.5295 9.40579 14.5615ZM8.12167 14.8352C8.03703 14.8453 7.97359 14.9178 7.97294 15.0048C7.97294 15.1085 8.05954 15.1878 8.16049 15.1765C8.20224 15.1717 8.24366 15.1665 8.28541 15.1612C8.35749 15.1515 8.42925 15.141 8.501 15.1293C8.6375 15.1067 8.69018 14.9352 8.59119 14.8363C8.55221 14.7983 8.50068 14.7817 8.44751 14.7902C8.33906 14.8078 8.23078 14.8227 8.12184 14.8353L8.12167 14.8352ZM6.81049 14.8603C6.68589 14.852 6.59603 14.9782 6.64284 15.0968C6.66746 15.1575 6.72226 15.1983 6.78635 15.203L6.84392 15.2072L6.88811 15.21L6.93231 15.2125L6.97667 15.2148L7.02103 15.2168L7.06555 15.2187L7.11007 15.2202L7.13013 15.2207C7.26891 15.2238 7.35111 15.0642 7.27071 14.9487C7.23923 14.9045 7.19177 14.8788 7.13828 14.8772L7.07778 14.8752L7.03538 14.8735L6.99298 14.8715L6.95074 14.8693L6.9085 14.8668L6.86626 14.8642L6.81081 14.8602L6.81049 14.8603ZM5.51691 14.637C5.38987 14.6038 5.27636 14.7233 5.31322 14.8522C5.33051 14.9102 5.37438 14.9538 5.43178 14.9693L5.47092 14.98L5.51251 14.991L5.55409 15.0017L5.59584 15.0122L5.63776 15.0223L5.67967 15.0323L5.72174 15.0422L5.76627 15.0522C5.88385 15.0773 5.98773 14.9732 5.96637 14.8525C5.95316 14.7837 5.90325 14.731 5.8359 14.716L5.79529 14.7068L5.75518 14.6975L5.71522 14.688L5.67526 14.6782L5.63547 14.6682L5.59568 14.658L5.55605 14.6475L5.51691 14.637ZM4.28857 14.17C4.1612 14.108 4.02095 14.2228 4.0521 14.3638C4.06433 14.4153 4.09629 14.4563 4.14294 14.4797L4.19561 14.5055L4.23377 14.5238L4.2721 14.542L4.31042 14.5598L4.34891 14.5775L4.38756 14.595L4.42621 14.6122L4.45606 14.6252C4.51183 14.6492 4.5738 14.6413 4.6224 14.6047C4.72612 14.5247 4.70672 14.3612 4.5875 14.309L4.55945 14.2967L4.52259 14.2802L4.48574 14.2635L4.44904 14.2467L4.41251 14.2297L4.37598 14.2123L4.33961 14.1948L4.28857 14.17ZM3.16689 13.4762C3.12351 13.4435 3.06904 13.4342 3.0175 13.4502C2.88573 13.4925 2.85654 13.6682 2.96711 13.7525L3.00951 13.7845L3.04327 13.8095L3.07719 13.8343L3.11127 13.859L3.14552 13.8835L3.17993 13.9078L3.21434 13.932L3.2481 13.9552C3.36617 14.0357 3.52241 13.9403 3.50903 13.7957C3.50381 13.7438 3.47756 13.6992 3.43548 13.6698L3.40336 13.6477L3.37041 13.6247L3.33763 13.6015L3.30502 13.5782L3.27256 13.5547L3.24027 13.531L3.20798 13.5072L3.16705 13.4763L3.16689 13.4762ZM2.19067 12.5812C2.13783 12.5232 2.05221 12.5092 1.9847 12.5485C1.89011 12.6037 1.87054 12.7332 1.94425 12.815L1.9816 12.8558L2.01014 12.8868L2.03884 12.9177L2.06771 12.9483L2.09673 12.9788L2.12593 13.0092L2.15528 13.0392L2.18333 13.0675C2.27808 13.1623 2.4366 13.1137 2.46547 12.9817C2.47737 12.9233 2.46074 12.8648 2.41915 12.8227L2.39257 12.7957L2.36452 12.767L2.33663 12.7382L2.30891 12.7092L2.28134 12.68L2.25395 12.6507L2.22671 12.6212L2.19067 12.5817V12.5812ZM1.39385 11.5167C1.36156 11.4643 1.30431 11.4337 1.24381 11.4365C1.11546 11.4427 1.04094 11.5885 1.10943 11.6997L1.13895 11.7473L1.16145 11.7833L1.18429 11.8192L1.20728 11.8548L1.23044 11.8903L1.25376 11.9257L1.27724 11.961L1.29877 11.993C1.37607 12.1065 1.54633 12.085 1.59428 11.9553C1.61352 11.9018 1.60667 11.844 1.57487 11.797L1.55432 11.7667L1.53182 11.733L1.50947 11.6992L1.48746 11.6653L1.4656 11.6313L1.44391 11.5972L1.42239 11.5628L1.39401 11.5168L1.39385 11.5167ZM0.805118 10.3197C0.763042 10.2103 0.63013 10.1753 0.541249 10.2498C0.485149 10.298 0.465742 10.3747 0.491998 10.4445L0.508307 10.4868L0.523963 10.527L0.539945 10.567L0.55609 10.607L0.572398 10.6468L0.589033 10.6865L0.60583 10.726L0.624748 10.7698C0.677587 10.8882 0.832842 10.9063 0.911122 10.804C0.948957 10.7528 0.956785 10.6872 0.931181 10.6285L0.913894 10.5883L0.897912 10.5505L0.882093 10.5127L0.866437 10.4747L0.850944 10.4365L0.835777 10.3983L0.820774 10.36L0.805281 10.3195L0.805118 10.3197ZM0.446498 9.03084C0.422688 8.89918 0.265802 8.84484 0.168442 8.93484C0.125062 8.97501 0.105329 9.03484 0.115929 9.09368L0.125551 9.14584L0.133868 9.18918L0.142348 9.23251L0.151155 9.27568L0.160124 9.31884L0.16942 9.36184L0.178879 9.40484L0.186381 9.43768C0.217856 9.57167 0.381265 9.61567 0.473407 9.51501C0.511405 9.47251 0.526409 9.41518 0.513525 9.35901L0.506513 9.32818L0.49738 9.28718L0.488574 9.24618L0.47993 9.20501L0.471613 9.16384L0.463459 9.12251L0.455468 9.08118L0.446172 9.03101L0.446498 9.03084ZM11.1875 0.898701C11.165 0.806868 11.2196 0.713702 11.3096 0.690702C11.3995 0.667702 11.4906 0.723535 11.5131 0.815535L11.749 1.7777C11.7715 1.86953 11.7168 1.9627 11.6268 1.9857L10.6855 2.2267C10.5956 2.2497 10.5045 2.19386 10.482 2.10186C10.4595 2.01003 10.5141 1.91686 10.6041 1.89386L11.1883 1.74437C10.6756 1.39837 10.1157 1.11937 9.52092 0.919868C8.83337 0.689202 8.09819 0.564369 7.33382 0.564369C5.45037 0.564369 3.74077 1.3237 2.48243 2.55886C1.21837 3.79969 0.408989 5.52019 0.334949 7.43385C0.331362 7.52835 0.253408 7.60201 0.16094 7.59818C0.0684717 7.59451 -0.00361091 7.51485 0.000139997 7.42035C0.0777675 5.41485 0.925799 3.61169 2.25003 2.31186C3.56937 1.0167 5.36084 0.220703 7.33382 0.220703C8.13325 0.220703 8.90333 0.351703 9.62465 0.593702C10.2264 0.795535 10.7936 1.0747 11.3153 1.4197L11.1876 0.898868L11.1875 0.898701Z" fill="#fff"/>
</svg>
