<svg width="18" height="16" viewBox="0 0 18 16" fill="none" xmlns="http://www.w3.org/2000/svg">
<path d="M5.04688 0.580078L6.07812 1.61133L3.32812 4.36133L2.8125 4.79102L2.29688 4.36133L0.921875 2.98633L1.95312 1.95508L2.8125 2.85742L5.04688 0.580078ZM8.3125 1.7832H17.25V3.1582H8.3125V1.7832ZM5.04688 6.08008L6.07812 7.11133L3.32812 9.86133L2.8125 10.291L2.29688 9.86133L0.921875 8.48633L1.95312 7.45508L2.8125 8.35742L5.04688 6.08008ZM8.3125 7.2832H17.25V8.6582H8.3125V7.2832ZM5.04688 11.5801L6.07812 12.6113L3.32812 15.3613L2.8125 15.791L2.29688 15.3613L0.921875 13.9863L1.95312 12.9551L2.8125 13.8574L5.04688 11.5801ZM8.3125 12.7832H17.25V14.1582H8.3125V12.7832Z" fill="white"/>
</svg>
