<svg width="17" height="18" viewBox="0 0 17 18" fill="none" xmlns="http://www.w3.org/2000/svg">
<path d="M7.11872 14.8086C8.72158 14.8098 10.2773 14.2665 11.5314 13.2679L15.8401 17.5781L17 16.4178L12.6913 12.1076C13.6904 10.8441 14.2313 9.2789 14.2255 7.66796C14.2197 6.05701 13.6677 4.4957 12.6596 3.23941C11.6515 1.98312 10.2472 1.10622 8.67614 0.752133C7.10514 0.398049 5.46051 0.587747 4.01128 1.2902C2.56205 1.99265 1.39401 3.16627 0.698202 4.61909C0.00239821 6.07191 -0.179976 7.71793 0.18091 9.28791C0.541797 10.8579 1.42458 12.2589 2.68487 13.2618C3.94515 14.2646 5.50834 14.81 7.11872 14.8086ZM7.11872 2.22011C8.20086 2.22011 9.25869 2.54111 10.1584 3.14253C11.0582 3.74394 11.7595 4.59875 12.1736 5.59886C12.5877 6.59897 12.6961 7.69946 12.485 8.76117C12.2738 9.82288 11.7527 10.7981 10.9876 11.5636C10.2224 12.329 9.24747 12.8503 8.18613 13.0615C7.12479 13.2727 6.02469 13.1643 5.02493 12.75C4.02517 12.3358 3.17066 11.6343 2.56945 10.7342C1.96825 9.8341 1.64736 8.7759 1.64736 7.69339C1.64736 6.24179 2.22381 4.84964 3.24989 3.8232C4.27597 2.79676 5.66763 2.22011 7.11872 2.22011Z" fill="#5A6C83"/>
</svg>
