<svg width="18" height="18" viewBox="0 0 18 18" fill="none" xmlns="http://www.w3.org/2000/svg">
<path d="M7.06641 0.0332031H7.625H10.375H10.9336L11.0625 0.591797L11.4492 2.61133C12.0794 2.86914 12.6667 3.22721 13.2109 3.68555L15.2305 2.99805L15.7891 2.82617L16.0469 3.29883L17.4219 5.70508L17.6797 6.17773L17.293 6.56445L15.7461 7.89648C15.832 8.41211 15.875 8.77018 15.875 8.9707C15.875 9.17122 15.832 9.5293 15.7461 10.0449L17.293 11.377L17.6797 11.7637L17.4219 12.2363L16.0469 14.6426L15.7891 15.1152L15.2305 14.9434L13.2109 14.2559C12.6667 14.7142 12.0794 15.0723 11.4492 15.3301L11.0625 17.3496L10.9336 17.9082H10.375H7.625H7.06641L6.9375 17.3496L6.55078 15.3301C5.92057 15.0723 5.33333 14.7142 4.78906 14.2559L2.76953 14.9434L2.21094 15.1152L1.95312 14.6426L0.578125 12.2363L0.320312 11.7637L0.707031 11.377L2.25391 10.0449C2.16797 9.5293 2.125 9.17122 2.125 8.9707C2.125 8.77018 2.16797 8.41211 2.25391 7.89648L0.707031 6.56445L0.320312 6.17773L0.578125 5.70508L1.95312 3.29883L2.21094 2.82617L2.76953 2.99805L4.78906 3.68555C5.33333 3.22721 5.92057 2.86914 6.55078 2.61133L6.9375 0.591797L7.06641 0.0332031ZM8.18359 1.4082L7.83984 3.21289L7.75391 3.59961L7.36719 3.72852C6.59375 3.98633 5.90625 4.38737 5.30469 4.93164L4.96094 5.18945L4.61719 5.10352L2.85547 4.50195L2.03906 5.87695L3.41406 7.08008L3.75781 7.33789L3.62891 7.76758C3.54297 8.13997 3.5 8.54102 3.5 8.9707C3.5 9.40039 3.54297 9.80143 3.62891 10.1738L3.75781 10.6035L3.41406 10.8613L2.03906 12.0645L2.85547 13.4395L4.61719 12.8379L4.96094 12.752L5.30469 13.0098C5.90625 13.554 6.59375 13.9551 7.36719 14.2129L7.75391 14.3418L7.83984 14.7285L8.18359 16.5332H9.81641L10.1602 14.7285L10.2461 14.3418L10.6328 14.2129C11.4062 13.9551 12.0938 13.554 12.6953 13.0098L13.0391 12.752L13.3828 12.8379L15.1445 13.4395L15.9609 12.0645L14.5859 10.8613L14.2852 10.6035L14.3711 10.1738C14.457 9.80143 14.5 9.40039 14.5 8.9707C14.5 8.54102 14.457 8.13997 14.3711 7.76758L14.2422 7.33789L14.5859 7.08008L15.9609 5.87695L15.1445 4.50195L13.3828 5.10352L13.0391 5.18945L12.6953 4.93164C12.0938 4.38737 11.4062 3.98633 10.6328 3.72852L10.2461 3.59961L10.1602 3.21289L9.81641 1.4082H8.18359ZM6.55078 6.56445C7.23828 5.87695 8.05469 5.5332 9 5.5332C9.94531 5.5332 10.7474 5.87695 11.4062 6.56445C12.0938 7.22331 12.4375 8.02539 12.4375 8.9707C12.4375 9.91602 12.0938 10.7324 11.4062 11.4199C10.7474 12.0788 9.94531 12.4082 9 12.4082C8.05469 12.4082 7.23828 12.0788 6.55078 11.4199C5.89193 10.7324 5.5625 9.91602 5.5625 8.9707C5.5625 8.02539 5.89193 7.22331 6.55078 6.56445ZM10.4609 7.50977C10.0599 7.10872 9.57292 6.9082 9 6.9082C8.42708 6.9082 7.9401 7.10872 7.53906 7.50977C7.13802 7.91081 6.9375 8.39779 6.9375 8.9707C6.9375 9.54362 7.13802 10.0306 7.53906 10.4316C7.9401 10.8327 8.42708 11.0332 9 11.0332C9.57292 11.0332 10.0599 10.8327 10.4609 10.4316C10.862 10.0306 11.0625 9.54362 11.0625 8.9707C11.0625 8.39779 10.862 7.91081 10.4609 7.50977Z" fill="white"/>
</svg>
