<svg width="3" height="15" viewBox="0 0 3 15" fill="none" xmlns="http://www.w3.org/2000/svg">
<path d="M1.48367 3.1607C2.20168 3.1607 2.78375 2.57864 2.78375 1.86062C2.78375 1.14261 2.20168 0.560547 1.48367 0.560547C0.765658 0.560547 0.183594 1.14261 0.183594 1.86062C0.183594 2.57864 0.765658 3.1607 1.48367 3.1607Z" fill="#299FD6"/>
<path d="M1.48367 8.76031C2.20168 8.76031 2.78375 8.17825 2.78375 7.46023C2.78375 6.74222 2.20168 6.16016 1.48367 6.16016C0.765658 6.16016 0.183594 6.74222 0.183594 7.46023C0.183594 8.17825 0.765658 8.76031 1.48367 8.76031Z" fill="#299FD6"/>
<path d="M1.48367 14.3619C2.20168 14.3619 2.78375 13.7798 2.78375 13.0618C2.78375 12.3438 2.20168 11.7617 1.48367 11.7617C0.765658 11.7617 0.183594 12.3438 0.183594 13.0618C0.183594 13.7798 0.765658 14.3619 1.48367 14.3619Z" fill="#299FD6"/>
</svg>
