<svg width="14" height="12" viewBox="0 0 14 12" fill="none" xmlns="http://www.w3.org/2000/svg">
<path d="M11.8483 11.2207C11.7494 11.2207 11.6362 11.1924 11.5514 11.1217C11.3252 10.9521 11.2828 10.641 11.4524 10.4289C12.1877 9.42507 12.5835 8.23741 12.5835 6.9932C12.5835 3.79782 9.982 1.19628 6.78663 1.19628C3.59126 1.19628 0.989717 3.81196 0.989717 7.00733C0.989717 8.22327 1.35733 9.38266 2.06427 10.3724C2.21979 10.5986 2.17738 10.9096 1.95116 11.0652C1.72494 11.2207 1.41388 11.1783 1.25835 10.9521C0.438303 9.79268 0 8.42122 0 7.00733C0 3.26055 3.03985 0.220703 6.78663 0.220703C10.5334 0.220703 13.5733 3.26055 13.5733 7.00733C13.5733 8.46363 13.1208 9.86338 12.2442 11.0369C12.1594 11.1641 12.0039 11.2207 11.8483 11.2207Z" fill="white"/>
<path d="M6.71606 7.54444C6.71606 7.54444 6.71606 7.45961 6.75848 7.31822C6.78676 7.17683 6.84331 6.99303 6.94229 6.79508C7.04126 6.59714 7.16851 6.38506 7.35231 6.20125C7.53612 6.01745 7.79061 5.87606 8.0027 5.69225C8.21478 5.50845 8.42686 5.33878 8.63894 5.16912C8.85103 4.99945 9.04897 4.85806 9.21863 4.73081C9.55797 4.47632 9.78419 4.30665 9.78419 4.30665C9.81247 4.29251 9.84074 4.29251 9.85488 4.32079C9.86902 4.33493 9.86902 4.36321 9.85488 4.37734C9.85488 4.37734 9.71349 4.6177 9.47313 4.97118C9.36002 5.14084 9.21864 5.35292 9.06311 5.56501C8.90758 5.77709 8.73792 6.00331 8.58239 6.22953C8.41272 6.45575 8.28547 6.71025 8.10167 6.90819C7.91786 7.10614 7.71992 7.23339 7.52198 7.3465C7.32403 7.45961 7.15437 7.51616 7.01298 7.55858C6.87159 7.60099 6.78676 7.61513 6.78676 7.61513C6.74434 7.61513 6.71606 7.58686 6.71606 7.54444Z" fill="white"/>
<path d="M6.78679 9.01499C7.52861 9.01499 8.12998 8.41362 8.12998 7.6718C8.12998 6.92998 7.52861 6.32861 6.78679 6.32861C6.04497 6.32861 5.4436 6.92998 5.4436 7.6718C5.4436 8.41362 6.04497 9.01499 6.78679 9.01499Z" fill="white"/>
<path d="M6.78661 2.44052C6.51797 2.44052 6.29175 2.2143 6.29175 1.94566V1.05492C6.29175 0.78628 6.51797 0.560059 6.78661 0.560059C7.05524 0.560059 7.28147 0.78628 7.28147 1.05492V1.94566C7.28147 2.2143 7.05524 2.44052 6.78661 2.44052Z" fill="white"/>
<path d="M2.48843 4.95716C2.40359 4.95716 2.31876 4.92889 2.23393 4.88647L1.47043 4.44817C1.23007 4.30678 1.14524 4.00986 1.28663 3.7695C1.42801 3.52914 1.72493 3.44431 1.96529 3.5857L2.74292 4.03814C2.98328 4.17953 3.06812 4.47644 2.92673 4.7168C2.82776 4.87233 2.65809 4.95716 2.48843 4.95716Z" fill="white"/>
<path d="M1.75327 10.3722C1.58361 10.3722 1.41394 10.2873 1.32911 10.1177C1.18772 9.87732 1.27255 9.58041 1.51291 9.43902L2.29055 8.98658C2.53091 8.84519 2.82782 8.93002 2.96921 9.17038C3.1106 9.41074 3.02576 9.70766 2.7854 9.84904L2.00777 10.3015C1.92294 10.358 1.8381 10.3722 1.75327 10.3722Z" fill="white"/>
<path d="M11.9191 10.3155C11.8342 10.3155 11.7494 10.2873 11.6646 10.2448L10.8869 9.79241C10.6466 9.65102 10.5617 9.3541 10.7031 9.11374C10.8445 8.87338 11.1414 8.78855 11.3818 8.92994L12.1594 9.38238C12.3998 9.52377 12.4846 9.82068 12.3432 10.061C12.2584 10.2307 12.1029 10.3155 11.9191 10.3155Z" fill="white"/>
<path d="M11.1131 4.88634C10.9435 4.88634 10.7738 4.80151 10.689 4.63184C10.5476 4.39148 10.6324 4.09457 10.8728 3.95318L11.6504 3.50074C11.8908 3.35935 12.1877 3.44418 12.3291 3.68454C12.4705 3.9249 12.3856 4.22182 12.1453 4.36321L11.3676 4.81565C11.2828 4.8722 11.198 4.88634 11.1131 4.88634Z" fill="white"/>
</svg>
